<svg xmlns="http://www.w3.org/2000/svg" width="100" height="100" viewBox="50 50 100 100" enable-background="new 50 50 100 100"><path fill="#1D1D1D" d="M99.961 148.078c-26.517 0-48.089-21.592-48.089-48.133s21.573-48.134 48.089-48.134 48.088 21.593 48.088 48.134-21.572 48.133-48.088 48.133z"/><path d="M99.961 53.705c25.513 0 46.197 20.702 46.197 46.24 0 25.537-20.685 46.239-46.197 46.239-25.514 0-46.197-20.702-46.197-46.239 0-25.537 20.683-46.24 46.197-46.24m0-3.787c-27.56 0-49.98 22.441-49.98 50.027 0 27.585 22.421 50.027 49.98 50.027 27.559 0 49.979-22.442 49.979-50.027.001-27.586-22.42-50.027-49.979-50.027z"/><path fill="#282828" d="M99.961 57.493c23.386 0 42.412 19.044 42.412 42.453s-19.026 42.452-42.412 42.452c-23.387 0-42.413-19.044-42.413-42.452s19.026-42.453 42.413-42.453m0-3.788c-25.514 0-46.197 20.702-46.197 46.24 0 25.537 20.683 46.239 46.197 46.239 25.513 0 46.197-20.702 46.197-46.239 0-25.537-20.684-46.24-46.197-46.24z"/><path fill="#EBC9A4" d="M99.961 133.876c-16.692 0-30.272-11.823-30.272-26.355 0-1.017.076-2.08.224-3.161l.245-1.781 1.675.651c6.155 2.391 16.67 3.818 28.129 3.818 11.458 0 21.975-1.427 28.128-3.819l1.676-.65.243 1.781c.15 1.08.225 2.144.225 3.161-.001 14.532-13.581 26.355-30.273 26.355z"/><path fill="#282828" d="M128.603 104.553c.135.974.212 1.963.212 2.968 0 13.771-12.919 24.935-28.854 24.935-15.936 0-28.854-11.164-28.854-24.936 0-1.004.076-1.993.21-2.967 6.062 2.354 16.62 3.914 28.643 3.914s22.583-1.561 28.643-3.914m2.322-3.949l-3.348 1.301c-5.91 2.297-16.492 3.723-27.616 3.723s-21.706-1.427-27.615-3.723l-3.349-1.301-.49 3.562c-.158 1.146-.237 2.273-.237 3.355 0 15.315 14.217 27.775 31.69 27.775 17.476 0 31.69-12.46 31.69-27.775 0-1.082-.079-2.212-.236-3.355l-.489-3.562z"/><path fill="#CFAD92" d="M125.955 108.399c-.545 11.777-11.996 21.216-25.994 21.216-13.997 0-25.448-9.439-25.995-21.215 6.675 1.842 16.034 2.906 25.995 2.906 9.96.001 19.32-1.064 25.994-2.907m2.648-3.846c-6.06 2.354-16.619 3.914-28.642 3.914s-22.582-1.561-28.643-3.914c-.134.974-.21 1.963-.21 2.968 0 13.771 12.917 24.935 28.853 24.935 15.935 0 28.854-11.164 28.854-24.936-.001-1.004-.078-1.994-.212-2.967z"/><circle cx="90.659" cy="116.832" r="1.734"/><circle cx="109.263" cy="116.832" r="1.734"/></svg>