<?xml version="1.0" encoding="utf-8"?>
<!-- Generator: Adobe Illustrator 16.0.0, SVG Export Plug-In . SVG Version: 6.00 Build 0)  -->
<!DOCTYPE svg PUBLIC "-//W3C//DTD SVG 1.1//EN" "http://www.w3.org/Graphics/SVG/1.1/DTD/svg11.dtd">
<svg version="1.1" id="Layer_1" xmlns="http://www.w3.org/2000/svg" xmlns:xlink="http://www.w3.org/1999/xlink" x="0px" y="0px"
	 width="100px" height="100px" viewBox="50 50 100 100" enable-background="new 50 50 100 100" xml:space="preserve">
<g>
	<g>
		<path fill="#1D1D1D" d="M99.961,148.078c-26.517,0-48.089-21.592-48.089-48.133s21.573-48.134,48.089-48.134
			c26.516,0,48.088,21.593,48.088,48.134S126.477,148.078,99.961,148.078z"/>
		<path d="M99.961,53.705c25.513,0,46.197,20.702,46.197,46.24c0,25.537-20.685,46.239-46.197,46.239
			c-25.514,0-46.197-20.702-46.197-46.239C53.764,74.408,74.447,53.705,99.961,53.705 M99.961,49.918
			c-27.56,0-49.98,22.441-49.98,50.027c0,27.585,22.421,50.027,49.98,50.027c27.559,0,49.979-22.442,49.979-50.027
			C149.941,72.359,127.52,49.918,99.961,49.918L99.961,49.918z"/>
		<path fill="#282828" d="M99.961,57.493c23.386,0,42.412,19.044,42.412,42.453s-19.026,42.452-42.412,42.452
			c-23.387,0-42.413-19.044-42.413-42.452S76.574,57.493,99.961,57.493 M99.961,53.705c-25.514,0-46.197,20.702-46.197,46.24
			c0,25.537,20.683,46.239,46.197,46.239c25.513,0,46.197-20.702,46.197-46.239C146.158,74.408,125.474,53.705,99.961,53.705
			L99.961,53.705z"/>
	</g>
	<g>
		<path fill="#EBC9A4" d="M99.961,133.876c-16.692,0-30.272-11.823-30.272-26.355c0-1.017,0.076-2.08,0.224-3.161l0.245-1.781
			l1.675,0.651c6.155,2.391,16.67,3.818,28.129,3.818c11.458,0,21.975-1.427,28.128-3.819l1.676-0.65l0.243,1.781
			c0.15,1.08,0.225,2.144,0.225,3.161C130.233,122.053,116.653,133.876,99.961,133.876z"/>
		<path fill="#282828" d="M128.603,104.553c0.135,0.974,0.212,1.963,0.212,2.968c0,13.771-12.919,24.935-28.854,24.935
			c-15.936,0-28.854-11.164-28.854-24.936c0-1.004,0.076-1.993,0.21-2.967c6.062,2.354,16.62,3.914,28.643,3.914
			S122.543,106.906,128.603,104.553 M130.925,100.604l-3.348,1.301c-5.91,2.297-16.492,3.723-27.616,3.723
			s-21.706-1.427-27.615-3.723l-3.349-1.301l-0.49,3.562c-0.158,1.146-0.237,2.273-0.237,3.355c0,15.315,14.217,27.775,31.69,27.775
			c17.476,0,31.69-12.46,31.69-27.775c0-1.082-0.079-2.212-0.236-3.355L130.925,100.604L130.925,100.604z"/>
		<path fill="#CFAD92" d="M125.955,108.399c-0.545,11.777-11.996,21.216-25.994,21.216c-13.997,0-25.448-9.439-25.995-21.215
			c6.675,1.842,16.034,2.906,25.995,2.906C109.921,111.307,119.281,110.242,125.955,108.399 M128.603,104.553
			c-6.06,2.354-16.619,3.914-28.642,3.914c-12.023,0-22.582-1.561-28.643-3.914c-0.134,0.974-0.21,1.963-0.21,2.968
			c0,13.771,12.917,24.935,28.853,24.935c15.935,0,28.854-11.164,28.854-24.936C128.814,106.516,128.737,105.526,128.603,104.553
			L128.603,104.553z"/>
	</g>
	<circle cx="90.659" cy="116.832" r="1.734"/>
	<circle cx="109.263" cy="116.832" r="1.734"/>
</g>
</svg>
