<?xml version="1.0" encoding="utf-8"?>
<!-- Generator: Adobe Illustrator 16.0.0, SVG Export Plug-In . SVG Version: 6.00 Build 0)  -->
<!DOCTYPE svg PUBLIC "-//W3C//DTD SVG 1.1//EN" "http://www.w3.org/Graphics/SVG/1.1/DTD/svg11.dtd">
<svg version="1.1" id="Layer_1" xmlns="http://www.w3.org/2000/svg" xmlns:xlink="http://www.w3.org/1999/xlink" x="0px" y="0px"
	 width="200px" height="200px" viewBox="0 0 200 200" enable-background="new 0 0 200 200" xml:space="preserve">
<g>
	<g>
		<path fill="#1D1D1D" d="M99.961,196.212c-53.033,0-96.178-43.185-96.178-96.267S46.929,3.677,99.961,3.677
			c53.032,0,96.176,43.186,96.176,96.268S152.993,196.212,99.961,196.212z"/>
		<path d="M99.961,7.465c51.026,0,92.394,41.404,92.394,92.48c0,51.074-41.368,92.479-92.394,92.479
			c-51.028,0-92.394-41.404-92.394-92.479C7.568,48.87,48.933,7.465,99.961,7.465 M99.961-0.11C44.842-0.11,0,44.774,0,99.945
			C0,155.115,44.842,200,99.961,200c55.118,0,99.96-44.885,99.96-100.055C199.922,44.774,155.079-0.11,99.961-0.11L99.961-0.11z"/>
		<path fill="#282828" d="M99.961,15.04c46.772,0,84.824,38.089,84.824,84.905s-38.052,84.904-84.824,84.904
			c-46.773,0-84.826-38.088-84.826-84.904S53.188,15.04,99.961,15.04 M99.961,7.465c-51.028,0-92.394,41.404-92.394,92.48
			c0,51.074,41.365,92.479,92.394,92.479c51.026,0,92.394-41.404,92.394-92.479C192.355,48.87,150.987,7.465,99.961,7.465
			L99.961,7.465z"/>
	</g>
	<g>
		<path fill="#EBC9A4" d="M99.961,167.806c-33.384,0-60.544-23.646-60.544-52.711c0-2.033,0.151-4.16,0.447-6.321l0.49-3.562
			l3.349,1.301c12.31,4.782,33.341,7.637,56.258,7.637c22.917,0,43.95-2.854,56.257-7.638l3.35-1.3l0.487,3.562
			c0.3,2.159,0.45,4.286,0.45,6.321C160.506,144.16,133.346,167.806,99.961,167.806z"/>
		<path fill="#282828" d="M157.245,109.159c0.269,1.948,0.423,3.926,0.423,5.936c0,27.542-25.838,49.871-57.707,49.871
			c-31.871,0-57.706-22.329-57.706-49.871c0-2.01,0.152-3.987,0.42-5.936c12.122,4.709,33.24,7.829,57.285,7.829
			S145.125,113.868,157.245,109.159 M161.889,101.262l-6.696,2.602c-11.82,4.592-32.983,7.444-55.231,7.444
			c-22.248,0-43.412-2.853-55.231-7.444l-6.698-2.602l-0.979,7.123c-0.315,2.29-0.473,4.547-0.473,6.71
			c0,30.632,28.433,55.552,63.381,55.552c34.95,0,63.381-24.92,63.381-55.552c0-2.164-0.159-4.423-0.473-6.71L161.889,101.262
			L161.889,101.262z"/>
		<path fill="#CFAD92" d="M151.949,116.854c-1.089,23.554-23.991,42.43-51.988,42.43c-27.994,0-50.896-18.878-51.99-42.429
			c13.35,3.685,32.069,5.813,51.99,5.813S138.601,120.54,151.949,116.854 M157.245,109.159c-12.12,4.709-33.238,7.829-57.284,7.829
			s-45.164-3.12-57.285-7.829c-0.268,1.948-0.42,3.926-0.42,5.936c0,27.542,25.835,49.871,57.706,49.871
			c31.869,0,57.707-22.329,57.707-49.871C157.668,113.085,157.514,111.107,157.245,109.159L157.245,109.159z"/>
	</g>
	<circle cx="81.357" cy="133.718" r="3.469"/>
	<circle cx="118.565" cy="133.718" r="3.468"/>
</g>
</svg>
